Coordinates
version=1
nRows=18
nColumns=22
inDegrees=yes

Units are S.I. units (second, meters, Newtons, ...)
If the header above contains a line with 'inDegrees', this indicates whether rotational values are in degrees (yes) or radians (no).

endheader
time	pelvis_tilt	pelvis_list	pelvis_rotation	pelvis_tx	pelvis_ty	pelvis_tz	hip_flexion_r	hip_adduction_r	hip_rotation_r	knee_angle_r	ankle_angle_r	subtalar_angle_r	hip_flexion_l	hip_adduction_l	hip_rotation_l	knee_angle_l	ankle_angle_l	subtalar_angle_l	lumbar_extension	lumbar_bending	lumbar_rotation
      0.01000000	      1.24074573	     -2.36684870	      0.01651299	     -1.28914922	      0.93762144	      0.03870072	     -1.26643385	      3.45160156	      0.29598324	     -8.42515696	      5.06908345	     -0.19906486	      0.58770930	     -4.52700144	     -8.65749904	    -12.98379871	      8.59855067	      1.23537126	     -3.47357675	     -1.53219176	     -0.82159827
      0.02000000	      1.39872001	     -2.29124679	     -0.01568909	     -1.28902074	      0.93777280	      0.03858004	     -1.48174250	      3.36613951	      0.54221496	     -8.36393574	      5.13392534	     -0.24514119	      0.41441944	     -4.42615022	     -8.66195386	    -13.00190055	      8.58918482	      1.17289589	     -3.61826979	     -1.59256695	     -0.76483031
      0.03000000	      1.58667273	     -2.19999945	     -0.05947607	     -1.28886563	      0.93794964	      0.03844319	     -1.73973845	      3.26181397	      0.84583657	     -8.28761110	      5.20895666	     -0.27263932	      0.20664354	     -4.30456975	     -8.67532463	    -13.02223759	      8.58191479	      1.08665919	     -3.78769290	     -1.66748504	     -0.69503928
      0.04000000	      1.79848461	     -2.10177359	     -0.11581648	     -1.28870109	      0.93814619	      0.03830363	     -2.02667195	      3.14854179	      1.18929359	     -8.20609630	      5.28321272	     -0.30143772	     -0.02856269	     -4.17321657	     -8.70509782	    -13.04493123	      8.57640186	      0.98660006	     -3.98078697	     -1.74688487	     -0.61609979
      0.05000000	      2.01819323	     -2.00342226	     -0.19105077	     -1.28852732	      0.93834523	      0.03819541	     -2.32205422	      3.03405352	      1.56037339	     -8.12481877	      5.36024690	     -0.33173244	     -0.27511200	     -4.04187841	     -8.75118937	    -13.06976066	      8.57699988	      0.88136745	     -4.17603126	     -1.82859689	     -0.52346744
      0.06000000	      2.22572768	     -1.91434037	     -0.28865170	     -1.28836331	      0.93852167	      0.03814091	     -2.59666270	      2.92924414	      1.94140522	     -8.05443911	      5.43987880	     -0.36113245	     -0.51142582	     -3.92199077	     -8.81330048	    -13.09621737	      8.58778155	      0.78179776	     -4.35479587	     -1.90446883	     -0.40886186
      0.07000000	      2.43087459	     -1.83594760	     -0.39046614	     -1.28820784	      0.93870047	      0.03812902	     -2.86813214	      2.83620860	      2.29940477	     -7.98078063	      5.49396125	     -0.39578195	     -0.74361094	     -3.81740485	     -8.89346211	    -13.12649432	      8.59929575	      0.67932084	     -4.52872934	     -1.97358830	     -0.31761858
      0.08000000	      2.58331207	     -1.78012945	     -0.52821803	     -1.28809711	      0.93880596	      0.03820295	     -3.05668365	      2.76691613	      2.65139207	     -7.94667587	      5.56855601	     -0.41938358	     -0.92242673	     -3.74030562	     -8.99219533	    -13.15800646	      8.63271996	      0.60839569	     -4.64377020	     -2.02246804	     -0.16838801
      0.09000000	      2.71662437	     -1.74269774	     -0.67175719	     -1.28800339	      0.93889900	      0.03834478	     -3.21900785	      2.71999556	      2.96084228	     -7.91811181	      5.61654819	     -0.44534524	     -1.08169415	     -3.68814310	     -9.10598382	    -13.18794737	      8.66609245	      0.54500886	     -4.73662847	     -2.05865359	     -0.03629447
      0.10000000	      2.79780447	     -1.71966766	     -0.81062887	     -1.28792915	      0.93892778	      0.03851476	     -3.32188768	      2.68870376	      3.22507223	     -7.89062590	      5.67680894	     -0.45978906	     -1.18150337	     -3.65580195	     -9.21293282	    -13.22176011	      8.72783094	      0.51052958	     -4.76738334	     -2.08214404	      0.06768323
      0.11000000	      2.87174811	     -1.72252900	     -0.98043035	     -1.28790020	      0.93897171	      0.03879405	     -3.38814806	      2.68892742	      3.44842371	     -7.90696283	      5.69103807	     -0.48002964	     -1.28233987	     -3.65738894	     -9.36208993	    -13.24333259	      8.75740562	      0.47667813	     -4.79651518	     -2.08815017	      0.21322632
      0.12000000	      2.91309472	     -1.73483978	     -1.13714052	     -1.28787164	      0.93898575	      0.03906633	     -3.42226726	      2.69893355	      3.61902430	     -7.91670396	      5.69888368	     -0.49771820	     -1.35037270	     -3.67029647	     -9.50016595	    -13.25666553	      8.78819466	      0.45790253	     -4.78560583	     -2.08230422	      0.33224012
      0.13000000	      2.92658109	     -1.75849358	     -1.28022448	     -1.28784595	      0.93897708	      0.03933200	     -3.41334825	      2.72270708	      3.72331755	     -7.95076668	      5.69589358	     -0.50845833	     -1.39894282	     -3.69572092	     -9.62180181	    -13.24461094	      8.81557529	      0.45299419	     -4.74102228	     -2.06225097	      0.41665995
      0.14000000	      2.91890289	     -1.78001100	     -1.43552256	     -1.28785595	      0.93895147	      0.03963860	     -3.38715787	      2.74486546	      3.84949699	     -7.96699711	      5.68965052	     -0.52115904	     -1.41077089	     -3.72526364	     -9.77742793	    -13.26123545	      8.83362537	      0.46152322	     -4.67845205	     -2.05216236	      0.52448879
      0.15000000	      2.89048666	     -1.80765603	     -1.57921771	     -1.28785864	      0.93890870	      0.03993127	     -3.33052422	      2.77482504	      3.92070229	     -7.99959102	      5.67676757	     -0.53096860	     -1.41593338	     -3.76022515	     -9.91405950	    -13.24217885	      8.84759005	      0.48097985	     -4.59112346	     -2.03301259	      0.60120244
      0.16000000	      2.85068042	     -1.83434718	     -1.71355350	     -1.28783979	      0.93886384	      0.04020162	     -3.26222891	      2.80373418	      3.96714134	     -8.03451848	      5.65849832	     -0.53809128	     -1.41641291	     -3.79344232	    -10.05210930	    -13.20880585	      8.85242099	      0.50722226	     -4.48664292	     -2.01264025	      0.66340946
      0.17000000	      2.80221994	     -1.85656851	     -1.84063602	     -1.28781659	      0.93881405	      0.04046402	     -3.18633439	      2.82856020	      4.00643396	     -8.06729124	      5.64047348	     -0.54431085	     -1.41080095	     -3.82294213	    -10.18932978	    -13.16651771	      8.85181494	      0.54107956	     -4.37290116	     -1.99741843	      0.70660884
      0.18000000	      2.73936124	     -1.87325512	     -1.96824712	     -1.28781079	      0.93874916	      0.04072488	     -3.09146047	      2.84852000	      4.06367838	     -8.10485294	      5.62898623	     -0.55231378	     -1.38798544	     -3.84778487	    -10.33627144	    -13.12496984	      8.85061567	      0.59410567	     -4.24824386	     -1.98783719	      0.72911754
